<svg xmlns="http://www.w3.org/2000/svg" width="200" height="54" viewBox="0 0 200 54">
  <g fill="#1c1a16" opacity="0.05">
    <polygon points="0,0 20,0 10,18"/>
    <polygon points="20,0 40,0 30,18"/>
    <polygon points="40,0 60,0 50,18"/>
    <polygon points="60,0 80,0 70,18"/>
    <polygon points="80,0 100,0 90,18"/>
    <polygon points="100,0 120,0 110,18"/>
    <polygon points="120,0 140,0 130,18"/>
    <polygon points="140,0 160,0 150,18"/>
    <polygon points="160,0 180,0 170,18"/>
    <polygon points="180,0 200,0 190,18"/>
  </g>
</svg>
